<svg xmlns="http://www.w3.org/2000/svg" viewBox="0 0 760 520" role="img" aria-labelledby="title desc">
  <title id="title">Volume XXIX global issues source map</title>
  <desc id="desc">A map-like diagram of issue lanes and archival source pools for FRUS 1989-1992 Volume XXIX.</desc>
  <rect width="760" height="520" rx="28" fill="#f6f1e8"/>
  <rect x="34" y="34" width="692" height="452" rx="22" fill="#fffaf0" stroke="#d2c4ab" stroke-width="2"/>
  <g opacity=".18" stroke="#2f6f73" stroke-width="1.2">
    <path d="M75 124 C190 54 277 199 383 126 C499 47 589 93 690 160"/>
    <path d="M58 280 C168 234 245 347 359 287 C492 218 594 304 707 251"/>
    <path d="M84 406 C204 349 277 447 392 397 C515 343 608 390 681 335"/>
  </g>
  <circle cx="380" cy="252" r="82" fill="#2f6f73"/>
  <circle cx="380" cy="252" r="64" fill="#f6f1e8" stroke="#ffffff" stroke-width="6"/>
  <text x="380" y="238" text-anchor="middle" font-family="Arial, sans-serif" font-size="22" font-weight="700" fill="#253331">FRUS</text>
  <text x="380" y="267" text-anchor="middle" font-family="Arial, sans-serif" font-size="42" font-weight="700" fill="#253331">XXIX</text>
  <text x="380" y="294" text-anchor="middle" font-family="Arial, sans-serif" font-size="16" fill="#51605d">Global Issues</text>
  <g font-family="Arial, sans-serif" font-size="15" font-weight="700" fill="#253331">
    <g>
      <circle cx="170" cy="115" r="48" fill="#d54f38"/>
      <text x="170" y="111" text-anchor="middle" fill="#fff">UN</text>
      <text x="170" y="132" text-anchor="middle" fill="#fff">Governance</text>
    </g>
    <g>
      <circle cx="584" cy="118" r="50" fill="#4d7c3f"/>
      <text x="584" y="112" text-anchor="middle" fill="#fff">Rights</text>
      <text x="584" y="133" text-anchor="middle" fill="#fff">Democracy</text>
    </g>
    <g>
      <circle cx="153" cy="318" r="52" fill="#7c5b9b"/>
      <text x="153" y="312" text-anchor="middle" fill="#fff">Refugees</text>
      <text x="153" y="333" text-anchor="middle" fill="#fff">Relief</text>
    </g>
    <g>
      <circle cx="596" cy="324" r="54" fill="#c18a2b"/>
      <text x="596" y="318" text-anchor="middle" fill="#fff">Climate</text>
      <text x="596" y="339" text-anchor="middle" fill="#fff">Rio</text>
    </g>
  </g>
  <g stroke="#253331" stroke-width="3" fill="none" stroke-linecap="round" opacity=".42">
    <path d="M218 125 L305 204"/>
    <path d="M538 134 L456 205"/>
    <path d="M207 308 L301 278"/>
    <path d="M542 309 L458 279"/>
  </g>
  <g font-family="Arial, sans-serif" font-size="13" fill="#253331">
    <rect x="78" y="410" width="604" height="58" rx="20" fill="#eadfce"/>
    <text x="380" y="434" text-anchor="middle">9 chapter plan: United Nations - Climate/Rio - Human Rights - Law of Sea - Famine/Relief</text>
    <text x="380" y="454" text-anchor="middle">AIDS/Health - Population - Ozone - Whaling/Biodiversity</text>
  </g>
</svg>
